<svg version="1.1" xmlns="http://www.w3.org/2000/svg" xmlns:xlink="http://www.w3.org/1999/xlink" width="67.5" height="67.5" viewBox="0,0,67.5,67.5"><g transform="translate(-206.25,-146.25)"><g data-paper-data="{&quot;isPaintingLayer&quot;:true}" fill-rule="nonzero" stroke-linejoin="miter" stroke-miterlimit="10" stroke-dasharray="" stroke-dashoffset="0" style="mix-blend-mode: normal"><path d="M207.5,180c0,-17.94925 14.55075,-32.5 32.5,-32.5c17.94925,0 32.5,14.55075 32.5,32.5c0,17.94925 -14.55075,32.5 -32.5,32.5c-17.94925,0 -32.5,-14.55075 -32.5,-32.5z" fill="#000000" stroke="none" stroke-width="0" stroke-linecap="butt"/><path d="M240,162.20833v19.58333" fill="none" stroke="#ffffff" stroke-width="2.5" stroke-linecap="round"/><path d="M253.10913,173.0005c1.51433,2.39417 2.39087,5.23184 2.39087,8.27423c0,8.56041 -6.93959,15.5 -15.5,15.5c-8.56041,0 -15.5,-6.93959 -15.5,-15.5c0,-3.37775 1.08044,-6.50315 2.91456,-9.04946" fill="none" stroke="#ffffff" stroke-width="2.5" stroke-linecap="butt"/><path d="M207.5,180c0,-17.94925 14.55075,-32.5 32.5,-32.5c17.94925,0 32.5,14.55075 32.5,32.5c0,17.94925 -14.55075,32.5 -32.5,32.5c-17.94925,0 -32.5,-14.55075 -32.5,-32.5z" fill="none" stroke="#ffffff" stroke-width="2.5" stroke-linecap="butt"/></g></g></svg>